<?xml version="1.0" encoding="utf-8"?>
<!-- Generator: Adobe Illustrator 23.1.0, SVG Export Plug-In . SVG Version: 6.00 Build 0)  -->
<svg version="1.1" id="Layer_1" xmlns="http://www.w3.org/2000/svg" xmlns:xlink="http://www.w3.org/1999/xlink" x="0px" y="0px"
	 viewBox="0 0 16 16" style="enable-background:new 0 0 16 16;" xml:space="preserve">
<path d="M11.5,9.8c0,0.6-0.1,1.1-0.4,1.5c-0.3,0.4-0.7,0.8-1.2,1c-0.5,0.3-1.2,0.4-1.9,0.4c-0.9,0-1.6-0.2-2.2-0.5
	c-0.4-0.2-0.7-0.6-1-1c-0.3-0.4-0.4-0.8-0.4-1.2c0-0.2,0.1-0.4,0.2-0.6C4.8,9.3,5,9.2,5.3,9.2c0.2,0,0.4,0.1,0.5,0.2
	C5.9,9.5,6,9.7,6.1,10c0.1,0.3,0.2,0.5,0.4,0.7c0.1,0.2,0.3,0.4,0.6,0.5c0.2,0.1,0.6,0.2,0.9,0.2c0.5,0,1-0.1,1.3-0.4s0.5-0.6,0.5-1
	c0-0.3-0.1-0.6-0.3-0.7C9.3,9.1,9.1,9,8.8,8.9C8.5,8.8,8.1,8.7,7.6,8.5C7,8.4,6.5,8.2,6,8C5.6,7.8,5.3,7.5,5,7.1
	C4.8,6.8,4.6,6.3,4.6,5.8c0-0.5,0.1-1,0.4-1.4c0.3-0.4,0.7-0.7,1.2-0.9C6.7,3.3,7.3,3.2,8,3.2c0.5,0,1,0.1,1.4,0.2
	c0.4,0.1,0.7,0.3,1,0.6c0.3,0.2,0.5,0.5,0.6,0.7c0.1,0.3,0.2,0.5,0.2,0.7c0,0.2-0.1,0.4-0.2,0.6s-0.3,0.3-0.6,0.3
	c-0.2,0-0.4-0.1-0.5-0.2C9.8,6.1,9.7,5.9,9.5,5.7C9.4,5.3,9.2,5.1,8.9,4.9C8.7,4.7,8.4,4.6,7.9,4.6C7.4,4.6,7,4.7,6.7,4.9
	C6.4,5.1,6.3,5.3,6.3,5.6c0,0.2,0,0.3,0.1,0.5c0.1,0.1,0.2,0.2,0.4,0.3C7,6.6,7.2,6.6,7.4,6.7c0.2,0.1,0.5,0.1,0.9,0.2
	c0.5,0.1,1,0.3,1.4,0.4c0.4,0.1,0.8,0.3,1,0.5c0.3,0.2,0.5,0.5,0.7,0.8C11.5,9,11.5,9.4,11.5,9.8z"/>
</svg>
